<svg width="14" height="15" viewBox="0 0 14 15" fill="none" xmlns="http://www.w3.org/2000/svg">
<path d="M11.8025 11.7554C12.0763 12.9126 12.1688 14.1862 12.1688 15H13.125C13.125 14.7285 13.1155 14.4101 13.0936 14.0625C13.045 13.2931 12.9351 12.3804 12.7307 11.5166C12.5824 10.8895 12.3799 10.2692 12.1036 9.74302C11.8295 9.22078 11.4613 8.7508 10.9628 8.48559C10.5582 8.27027 10.2752 8.11652 10.0828 8.00925V7.52186C10.1692 7.44741 10.2446 7.36412 10.3074 7.28726C10.4613 7.09871 10.6121 6.85666 10.7447 6.58244C11.0088 6.03567 11.2236 5.31271 11.2236 4.54543C11.2236 2.6195 9.5213 0 6.5625 0C3.6037 0 1.90137 2.6195 1.90137 4.54543C1.90137 5.31271 2.11613 6.03567 2.38033 6.58244C2.51285 6.85666 2.66362 7.09871 2.81758 7.28726C2.88039 7.36412 2.95583 7.44741 3.0422 7.52186V8.00925C2.84972 8.11652 2.56685 8.27027 2.16218 8.48559C1.6637 8.7508 1.29552 9.22078 1.02135 9.74302C0.745059 10.2692 0.542613 10.8895 0.39428 11.5166C0.189935 12.3804 0.0800307 13.2931 0.0314164 14.0625C0.00945319 14.4101 0 14.7285 0 15H0.956207C0.956207 14.1862 1.04872 12.9126 1.32247 11.7554C1.45935 11.1769 1.63717 10.6462 1.85999 10.2218C2.08493 9.79351 2.3347 9.51308 2.59678 9.3736C3.30264 8.99802 3.78533 8.6863 3.96514 8.57017L3.9984 8.54872V6.86657L3.67086 6.76976L3.66567 6.76527C3.65165 6.75386 3.61042 6.72027 3.54566 6.64094C3.45006 6.52387 3.3394 6.35139 3.23425 6.1338C3.0231 5.69693 2.85758 5.12712 2.85758 4.54543C2.85758 3.09891 4.19745 0.996988 6.5625 0.996988C8.92755 0.996988 10.2674 3.09891 10.2674 4.54543C10.2674 5.12712 10.1019 5.69693 9.8908 6.1338C9.78562 6.35139 9.67497 6.52387 9.57936 6.64094C9.51467 6.72019 9.47354 6.7537 9.45948 6.76515L9.45411 6.76976L9.1266 6.86657V8.32302L9.13042 8.5698C9.13042 8.5698 9.77302 8.97175 10.5282 9.3736C10.7903 9.51308 11.0401 9.79351 11.265 10.2218C11.4879 10.6462 11.6656 11.1769 11.8025 11.7554Z" fill="black"/>
<path d="M11.8025 11.7554C12.0763 12.9126 12.1688 14.1862 12.1688 15H13.125C13.125 14.7285 13.1155 14.4101 13.0936 14.0625C13.045 13.2931 12.9351 12.3804 12.7307 11.5166C12.5824 10.8895 12.3799 10.2692 12.1036 9.74302C11.8295 9.22078 11.4613 8.7508 10.9628 8.48559C10.5582 8.27027 10.2752 8.11652 10.0828 8.00925V7.52186C10.1692 7.44741 10.2446 7.36412 10.3074 7.28726C10.4613 7.09871 10.6121 6.85666 10.7447 6.58244C11.0088 6.03567 11.2236 5.31271 11.2236 4.54543C11.2236 2.6195 9.5213 0 6.5625 0C3.6037 0 1.90137 2.6195 1.90137 4.54543C1.90137 5.31271 2.11613 6.03567 2.38033 6.58244C2.51285 6.85666 2.66362 7.09871 2.81758 7.28726C2.88039 7.36412 2.95583 7.44741 3.0422 7.52186V8.00925C2.84972 8.11652 2.56685 8.27027 2.16218 8.48559C1.6637 8.7508 1.29552 9.22078 1.02135 9.74302C0.745059 10.2692 0.542613 10.8895 0.39428 11.5166C0.189935 12.3804 0.0800307 13.2931 0.0314164 14.0625C0.00945319 14.4101 0 14.7285 0 15H0.956207C0.956207 14.1862 1.04872 12.9126 1.32247 11.7554C1.45935 11.1769 1.63717 10.6462 1.85999 10.2218C2.08493 9.79351 2.3347 9.51308 2.59678 9.3736C3.30264 8.99802 3.78533 8.6863 3.96514 8.57017L3.9984 8.54872V6.86657L3.67086 6.76976L3.66567 6.76527C3.65165 6.75386 3.61042 6.72027 3.54566 6.64094C3.45006 6.52387 3.3394 6.35139 3.23425 6.1338C3.0231 5.69693 2.85758 5.12712 2.85758 4.54543C2.85758 3.09891 4.19745 0.996988 6.5625 0.996988C8.92755 0.996988 10.2674 3.09891 10.2674 4.54543C10.2674 5.12712 10.1019 5.69693 9.8908 6.1338C9.78562 6.35139 9.67497 6.52387 9.57936 6.64094C9.51467 6.72019 9.47354 6.7537 9.45948 6.76515L9.45411 6.76976L9.1266 6.86657V8.32302L9.13042 8.5698C9.13042 8.5698 9.77302 8.97175 10.5282 9.3736C10.7903 9.51308 11.0401 9.79351 11.265 10.2218C11.4879 10.6462 11.6656 11.1769 11.8025 11.7554Z" stroke="none"/>
</svg>
